<svg width="134" height="26" viewBox="0 0 134 26" fill="none" xmlns="http://www.w3.org/2000/svg">
<path d="M0.644531 11V2.46875H3.70898C4.80664 2.46875 5.64062 2.66992 6.21094 3.07227C6.78516 3.47461 7.07227 4.05859 7.07227 4.82422C7.07227 5.26562 6.9707 5.64258 6.76758 5.95508C6.56445 6.26758 6.26562 6.49805 5.87109 6.64648C6.31641 6.76367 6.6582 6.98242 6.89648 7.30273C7.13477 7.62305 7.25391 8.01367 7.25391 8.47461C7.25391 9.31055 6.98828 9.93945 6.45703 10.3613C5.92969 10.7793 5.14648 10.9922 4.10742 11H0.644531ZM2.70117 7.37305V9.41797H4.04883C4.41992 9.41797 4.70508 9.33398 4.9043 9.16602C5.10352 8.99414 5.20312 8.75391 5.20312 8.44531C5.20312 7.73438 4.84961 7.37695 4.14258 7.37305H2.70117ZM2.70117 6.02539H3.77344C4.22266 6.02148 4.54297 5.93945 4.73438 5.7793C4.92578 5.61914 5.02148 5.38281 5.02148 5.07031C5.02148 4.71094 4.91797 4.45312 4.71094 4.29688C4.50391 4.13672 4.16992 4.05664 3.70898 4.05664H2.70117V6.02539ZM10.3828 11H8.40234V2H10.3828V11ZM11.3555 7.77148C11.3555 7.13867 11.4785 6.57617 11.7246 6.08398C11.9707 5.58789 12.3242 5.20703 12.7852 4.94141C13.2461 4.67578 13.7871 4.54297 14.4082 4.54297C15.3574 4.54297 16.1055 4.83789 16.6523 5.42773C17.1992 6.01367 17.4727 6.8125 17.4727 7.82422V7.89453C17.4727 8.88281 17.1973 9.66797 16.6465 10.25C16.0996 10.8281 15.3574 11.1172 14.4199 11.1172C13.5176 11.1172 12.793 10.8477 12.2461 10.3086C11.6992 9.76562 11.4043 9.03125 11.3613 8.10547L11.3555 7.77148ZM13.3301 7.89453C13.3301 8.48047 13.4219 8.91016 13.6055 9.18359C13.7891 9.45703 14.0605 9.59375 14.4199 9.59375C15.123 9.59375 15.4824 9.05273 15.498 7.9707V7.77148C15.498 6.63477 15.1348 6.06641 14.4082 6.06641C13.748 6.06641 13.3906 6.55664 13.3359 7.53711L13.3301 7.89453ZM18.1113 7.7832C18.1113 7.14258 18.2168 6.57617 18.4277 6.08398C18.6387 5.5918 18.9414 5.21289 19.3359 4.94727C19.7305 4.67773 20.1895 4.54297 20.7129 4.54297C21.373 4.54297 21.8887 4.76562 22.2598 5.21094L22.3301 4.66016H24.123V10.7598C24.123 11.3184 23.9922 11.8027 23.7305 12.2129C23.4727 12.627 23.0977 12.9434 22.6055 13.1621C22.1133 13.3848 21.543 13.4961 20.8945 13.4961C20.4297 13.4961 19.9785 13.4082 19.541 13.2324C19.1074 13.0566 18.7754 12.8281 18.5449 12.5469L19.3711 11.3867C19.7383 11.8203 20.2227 12.0371 20.8242 12.0371C21.6992 12.0371 22.1367 11.5879 22.1367 10.6895V10.4902C21.7578 10.9082 21.2793 11.1172 20.7012 11.1172C19.9277 11.1172 19.3027 10.8223 18.8262 10.2324C18.3496 9.63867 18.1113 8.8457 18.1113 7.85352V7.7832ZM20.0918 7.90625C20.0918 8.42578 20.1895 8.83789 20.3848 9.14258C20.5801 9.44336 20.8535 9.59375 21.2051 9.59375C21.6309 9.59375 21.9414 9.45117 22.1367 9.16602V6.5C21.9453 6.21094 21.6387 6.06641 21.2168 6.06641C20.8652 6.06641 20.5898 6.22461 20.3906 6.54102C20.1914 6.85352 20.0918 7.30859 20.0918 7.90625ZM25.0137 7.7832C25.0137 7.14258 25.1191 6.57617 25.3301 6.08398C25.541 5.5918 25.8438 5.21289 26.2383 4.94727C26.6328 4.67773 27.0918 4.54297 27.6152 4.54297C28.2754 4.54297 28.791 4.76562 29.1621 5.21094L29.2324 4.66016H31.0254V10.7598C31.0254 11.3184 30.8945 11.8027 30.6328 12.2129C30.375 12.627 30 12.9434 29.5078 13.1621C29.0156 13.3848 28.4453 13.4961 27.7969 13.4961C27.332 13.4961 26.8809 13.4082 26.4434 13.2324C26.0098 13.0566 25.6777 12.8281 25.4473 12.5469L26.2734 11.3867C26.6406 11.8203 27.125 12.0371 27.7266 12.0371C28.6016 12.0371 29.0391 11.5879 29.0391 10.6895V10.4902C28.6602 10.9082 28.1816 11.1172 27.6035 11.1172C26.8301 11.1172 26.2051 10.8223 25.7285 10.2324C25.252 9.63867 25.0137 8.8457 25.0137 7.85352V7.7832ZM26.9941 7.90625C26.9941 8.42578 27.0918 8.83789 27.2871 9.14258C27.4824 9.44336 27.7559 9.59375 28.1074 9.59375C28.5332 9.59375 28.8438 9.45117 29.0391 9.16602V6.5C28.8477 6.21094 28.541 6.06641 28.1191 6.06641C27.7676 6.06641 27.4922 6.22461 27.293 6.54102C27.0938 6.85352 26.9941 7.30859 26.9941 7.90625ZM35.2148 11.1172C34.2422 11.1172 33.4551 10.8281 32.8535 10.25C32.252 9.66797 31.9512 8.91211 31.9512 7.98242V7.81836C31.9512 7.16992 32.0703 6.59766 32.3086 6.10156C32.5508 5.60547 32.9023 5.22266 33.3633 4.95312C33.8242 4.67969 34.3711 4.54297 35.0039 4.54297C35.8945 4.54297 36.5977 4.82031 37.1133 5.375C37.6289 5.92578 37.8867 6.69531 37.8867 7.68359V8.45117H33.9609C34.0312 8.80664 34.1855 9.08594 34.4238 9.28906C34.6621 9.49219 34.9707 9.59375 35.3496 9.59375C35.9746 9.59375 36.4629 9.375 36.8145 8.9375L37.7168 10.0039C37.4707 10.3438 37.1211 10.6152 36.668 10.8184C36.2188 11.0176 35.7344 11.1172 35.2148 11.1172ZM34.9922 6.06641C34.4141 6.06641 34.0703 6.44922 33.9609 7.21484H35.9531V7.0625C35.9609 6.74609 35.8809 6.50195 35.7129 6.33008C35.5449 6.1543 35.3047 6.06641 34.9922 6.06641ZM42.5215 6.44727L41.8711 6.40039C41.25 6.40039 40.8516 6.5957 40.6758 6.98633V11H38.7012V4.66016H40.5527L40.6172 5.47461C40.9492 4.85352 41.4121 4.54297 42.0059 4.54297C42.2168 4.54297 42.4004 4.56641 42.5566 4.61328L42.5215 6.44727ZM33.5391 25H31.5586V18.6953L29.6133 19.2637V17.7637L33.3574 16.4688H33.5391V25ZM40.002 21.7012C39.5762 22.084 39.0996 22.2754 38.5723 22.2754C37.7988 22.2754 37.1855 22.0137 36.7324 21.4902C36.2793 20.9668 36.0527 20.2676 36.0527 19.3926C36.0527 18.8457 36.1797 18.3379 36.4336 17.8691C36.6875 17.4004 37.043 17.0293 37.5 16.7559C37.9609 16.4824 38.4688 16.3457 39.0234 16.3457C39.5859 16.3457 40.0938 16.4883 40.5469 16.7734C41.0039 17.0547 41.3594 17.4551 41.6133 17.9746C41.8672 18.4902 41.998 19.0859 42.0059 19.7617V20.5176C42.0059 21.459 41.8203 22.2754 41.4492 22.9668C41.082 23.6582 40.5566 24.1895 39.873 24.5605C39.1895 24.9316 38.3926 25.1172 37.4824 25.1172H37.3594V23.5352L37.7344 23.5293C39.0938 23.4629 39.8496 22.8535 40.002 21.7012ZM39.1055 20.8516C39.5352 20.8516 39.8438 20.666 40.0312 20.2949V19.4746C40.0312 18.9277 39.9395 18.5234 39.7559 18.2617C39.5723 18 39.3242 17.8691 39.0117 17.8691C38.7344 17.8691 38.502 18.0176 38.3145 18.3145C38.127 18.6113 38.0332 18.9707 38.0332 19.3926C38.0332 19.8379 38.1289 20.1934 38.3203 20.459C38.5117 20.7207 38.7734 20.8516 39.1055 20.8516ZM46.9512 21.7012C46.5254 22.084 46.0488 22.2754 45.5215 22.2754C44.748 22.2754 44.1348 22.0137 43.6816 21.4902C43.2285 20.9668 43.002 20.2676 43.002 19.3926C43.002 18.8457 43.1289 18.3379 43.3828 17.8691C43.6367 17.4004 43.9922 17.0293 44.4492 16.7559C44.9102 16.4824 45.418 16.3457 45.9727 16.3457C46.5352 16.3457 47.043 16.4883 47.4961 16.7734C47.9531 17.0547 48.3086 17.4551 48.5625 17.9746C48.8164 18.4902 48.9473 19.0859 48.9551 19.7617V20.5176C48.9551 21.459 48.7695 22.2754 48.3984 22.9668C48.0312 23.6582 47.5059 24.1895 46.8223 24.5605C46.1387 24.9316 45.3418 25.1172 44.4316 25.1172H44.3086V23.5352L44.6836 23.5293C46.043 23.4629 46.7988 22.8535 46.9512 21.7012ZM46.0547 20.8516C46.4844 20.8516 46.793 20.666 46.9805 20.2949V19.4746C46.9805 18.9277 46.8887 18.5234 46.7051 18.2617C46.5215 18 46.2734 17.8691 45.9609 17.8691C45.6836 17.8691 45.4512 18.0176 45.2637 18.3145C45.0762 18.6113 44.9824 18.9707 44.9824 19.3926C44.9824 19.8379 45.0781 20.1934 45.2695 20.459C45.4609 20.7207 45.7227 20.8516 46.0547 20.8516ZM55.2246 21.666H56.0918V23.1895H55.2246V25H53.25V23.1895H49.9512L49.834 21.9824L53.25 16.4863V16.4688H55.2246V21.666ZM51.7148 21.666H53.25V19.041L53.127 19.2402L51.7148 21.666Z" fill="#FFA500"/>
<path d="M48.1055 11H46.4062V4.66016H48.1055V11ZM46.3066 3.01953C46.3066 2.76563 46.3906 2.55664 46.5586 2.39258C46.7305 2.22852 46.9629 2.14648 47.2559 2.14648C47.5449 2.14648 47.7754 2.22852 47.9473 2.39258C48.1191 2.55664 48.2051 2.76563 48.2051 3.01953C48.2051 3.27734 48.1172 3.48828 47.9414 3.65234C47.7695 3.81641 47.541 3.89844 47.2559 3.89844C46.9707 3.89844 46.7402 3.81641 46.5645 3.65234C46.3926 3.48828 46.3066 3.27734 46.3066 3.01953ZM52.9395 9.24805C52.9395 9.04102 52.8359 8.87891 52.6289 8.76172C52.4258 8.64062 52.0977 8.5332 51.6445 8.43945C50.1367 8.12305 49.3828 7.48242 49.3828 6.51758C49.3828 5.95508 49.6152 5.48633 50.0801 5.11133C50.5488 4.73242 51.1602 4.54297 51.9141 4.54297C52.7188 4.54297 53.3613 4.73242 53.8418 5.11133C54.3262 5.49023 54.5684 5.98242 54.5684 6.58789H52.875C52.875 6.3457 52.7969 6.14648 52.6406 5.99023C52.4844 5.83008 52.2402 5.75 51.9082 5.75C51.623 5.75 51.4023 5.81445 51.2461 5.94336C51.0898 6.07227 51.0117 6.23633 51.0117 6.43555C51.0117 6.62305 51.0996 6.77539 51.2754 6.89258C51.4551 7.00586 51.7559 7.10547 52.1777 7.19141C52.5996 7.27344 52.9551 7.36719 53.2441 7.47266C54.1387 7.80078 54.5859 8.36914 54.5859 9.17773C54.5859 9.75586 54.3379 10.2246 53.8418 10.584C53.3457 10.9395 52.7051 11.1172 51.9199 11.1172C51.3887 11.1172 50.916 11.0234 50.502 10.8359C50.0918 10.6445 49.7695 10.3848 49.5352 10.0566C49.3008 9.72461 49.1836 9.36719 49.1836 8.98438H50.7891C50.8047 9.28516 50.916 9.51562 51.123 9.67578C51.3301 9.83594 51.6074 9.91602 51.9551 9.91602C52.2793 9.91602 52.5234 9.85547 52.6875 9.73438C52.8555 9.60938 52.9395 9.44727 52.9395 9.24805ZM60.6973 3.10156V4.66016H61.7812V5.90234H60.6973V9.06641C60.6973 9.30078 60.7422 9.46875 60.832 9.57031C60.9219 9.67188 61.0938 9.72266 61.3477 9.72266C61.5352 9.72266 61.7012 9.70898 61.8457 9.68164V10.9648C61.5137 11.0664 61.1719 11.1172 60.8203 11.1172C59.6328 11.1172 59.0273 10.5176 59.0039 9.31836V5.90234H58.0781V4.66016H59.0039V3.10156H60.6973ZM64.377 5.35156C64.8262 4.8125 65.3906 4.54297 66.0703 4.54297C67.4453 4.54297 68.1426 5.3418 68.1621 6.93945V11H66.4688V6.98633C66.4688 6.62305 66.3906 6.35547 66.2344 6.18359C66.0781 6.00781 65.8184 5.91992 65.4551 5.91992C64.959 5.91992 64.5996 6.11133 64.377 6.49414V11H62.6836V2H64.377V5.35156ZM72.3574 11.1172C71.4277 11.1172 70.6699 10.832 70.084 10.2617C69.502 9.69141 69.2109 8.93164 69.2109 7.98242V7.81836C69.2109 7.18164 69.334 6.61328 69.5801 6.11328C69.8262 5.60938 70.1738 5.22266 70.623 4.95312C71.0762 4.67969 71.5918 4.54297 72.1699 4.54297C73.0371 4.54297 73.7188 4.81641 74.2148 5.36328C74.7148 5.91016 74.9648 6.68555 74.9648 7.68945V8.38086H70.9277C70.9824 8.79492 71.1465 9.12695 71.4199 9.37695C71.6973 9.62695 72.0469 9.75195 72.4688 9.75195C73.1211 9.75195 73.6309 9.51562 73.998 9.04297L74.8301 9.97461C74.5762 10.334 74.2324 10.6152 73.7988 10.8184C73.3652 11.0176 72.8848 11.1172 72.3574 11.1172ZM72.1641 5.91406C71.8281 5.91406 71.5547 6.02734 71.3438 6.25391C71.1367 6.48047 71.0039 6.80469 70.9453 7.22656H73.3008V7.0918C73.293 6.7168 73.1914 6.42773 72.9961 6.22461C72.8008 6.01758 72.5234 5.91406 72.1641 5.91406ZM81.9727 6.3125L83.748 2.46875H85.6699L82.8691 7.90625V11H81.082V7.90625L78.2812 2.46875H80.209L81.9727 6.3125ZM85.6875 7.77148C85.6875 7.14258 85.8086 6.58203 86.0508 6.08984C86.293 5.59766 86.6406 5.2168 87.0938 4.94727C87.5508 4.67773 88.0801 4.54297 88.6816 4.54297C89.5371 4.54297 90.2344 4.80469 90.7734 5.32812C91.3164 5.85156 91.6191 6.5625 91.6816 7.46094L91.6934 7.89453C91.6934 8.86719 91.4219 9.64844 90.8789 10.2383C90.3359 10.8242 89.6074 11.1172 88.6934 11.1172C87.7793 11.1172 87.0488 10.8242 86.502 10.2383C85.959 9.65234 85.6875 8.85547 85.6875 7.84766V7.77148ZM87.3809 7.89453C87.3809 8.49609 87.4941 8.95703 87.7207 9.27734C87.9473 9.59375 88.2715 9.75195 88.6934 9.75195C89.1035 9.75195 89.4238 9.5957 89.6543 9.2832C89.8848 8.9668 90 8.46289 90 7.77148C90 7.18164 89.8848 6.72461 89.6543 6.40039C89.4238 6.07617 89.0996 5.91406 88.6816 5.91406C88.2676 5.91406 87.9473 6.07617 87.7207 6.40039C87.4941 6.7207 87.3809 7.21875 87.3809 7.89453ZM96.5332 10.3555C96.1152 10.8633 95.5371 11.1172 94.7988 11.1172C94.1191 11.1172 93.5996 10.9219 93.2402 10.5312C92.8848 10.1406 92.7031 9.56836 92.6953 8.81445V4.66016H94.3887V8.75586C94.3887 9.41602 94.6895 9.74609 95.291 9.74609C95.8652 9.74609 96.2598 9.54688 96.4746 9.14844V4.66016H98.1738V11H96.5801L96.5332 10.3555ZM101.479 3.10156V4.66016H102.562V5.90234H101.479V9.06641C101.479 9.30078 101.523 9.46875 101.613 9.57031C101.703 9.67188 101.875 9.72266 102.129 9.72266C102.316 9.72266 102.482 9.70898 102.627 9.68164V10.9648C102.295 11.0664 101.953 11.1172 101.602 11.1172C100.414 11.1172 99.8086 10.5176 99.7852 9.31836V5.90234H98.8594V4.66016H99.7852V3.10156H101.479ZM107.303 10.3555C106.885 10.8633 106.307 11.1172 105.568 11.1172C104.889 11.1172 104.369 10.9219 104.01 10.5312C103.654 10.1406 103.473 9.56836 103.465 8.81445V4.66016H105.158V8.75586C105.158 9.41602 105.459 9.74609 106.061 9.74609C106.635 9.74609 107.029 9.54688 107.244 9.14844V4.66016H108.943V11H107.35L107.303 10.3555ZM115.934 7.88867C115.934 8.9043 115.717 9.69727 115.283 10.2676C114.85 10.834 114.244 11.1172 113.467 11.1172C112.779 11.1172 112.23 10.8535 111.82 10.3262L111.744 11H110.221V2H111.914V5.22852C112.305 4.77148 112.818 4.54297 113.455 4.54297C114.229 4.54297 114.834 4.82812 115.271 5.39844C115.713 5.96484 115.934 6.76367 115.934 7.79492V7.88867ZM114.24 7.76562C114.24 7.125 114.139 6.6582 113.936 6.36523C113.732 6.06836 113.43 5.91992 113.027 5.91992C112.488 5.91992 112.117 6.14062 111.914 6.58203V9.08398C112.121 9.5293 112.496 9.75195 113.039 9.75195C113.586 9.75195 113.945 9.48242 114.117 8.94336C114.199 8.68555 114.24 8.29297 114.24 7.76562ZM119.9 11.1172C118.971 11.1172 118.213 10.832 117.627 10.2617C117.045 9.69141 116.754 8.93164 116.754 7.98242V7.81836C116.754 7.18164 116.877 6.61328 117.123 6.11328C117.369 5.60938 117.717 5.22266 118.166 4.95312C118.619 4.67969 119.135 4.54297 119.713 4.54297C120.58 4.54297 121.262 4.81641 121.758 5.36328C122.258 5.91016 122.508 6.68555 122.508 7.68945V8.38086H118.471C118.525 8.79492 118.689 9.12695 118.963 9.37695C119.24 9.62695 119.59 9.75195 120.012 9.75195C120.664 9.75195 121.174 9.51562 121.541 9.04297L122.373 9.97461C122.119 10.334 121.775 10.6152 121.342 10.8184C120.908 11.0176 120.428 11.1172 119.9 11.1172ZM119.707 5.91406C119.371 5.91406 119.098 6.02734 118.887 6.25391C118.68 6.48047 118.547 6.80469 118.488 7.22656H120.844V7.0918C120.836 6.7168 120.734 6.42773 120.539 6.22461C120.344 6.01758 120.066 5.91406 119.707 5.91406ZM127.037 6.24805C126.807 6.2168 126.604 6.20117 126.428 6.20117C125.787 6.20117 125.367 6.41797 125.168 6.85156V11H123.475V4.66016H125.074L125.121 5.41602C125.461 4.83398 125.932 4.54297 126.533 4.54297C126.721 4.54297 126.896 4.56836 127.061 4.61914L127.037 6.24805ZM1.11328 25V19.9023H0.169922V18.6602H1.11328V18.1211C1.11328 17.4102 1.31641 16.8594 1.72266 16.4688C2.13281 16.0742 2.70508 15.877 3.43945 15.877C3.67383 15.877 3.96094 15.916 4.30078 15.9941L4.2832 17.3066C4.14258 17.2715 3.9707 17.2539 3.76758 17.2539C3.13086 17.2539 2.8125 17.5527 2.8125 18.1504V18.6602H4.07227V19.9023H2.8125V25H1.11328ZM8.51367 20.248C8.2832 20.2168 8.08008 20.2012 7.9043 20.2012C7.26367 20.2012 6.84375 20.418 6.64453 20.8516V25H4.95117V18.6602H6.55078L6.59766 19.416C6.9375 18.834 7.4082 18.543 8.00977 18.543C8.19727 18.543 8.37305 18.5684 8.53711 18.6191L8.51367 20.248ZM8.85938 21.7715C8.85938 21.1426 8.98047 20.582 9.22266 20.0898C9.46484 19.5977 9.8125 19.2168 10.2656 18.9473C10.7227 18.6777 11.252 18.543 11.8535 18.543C12.709 18.543 13.4062 18.8047 13.9453 19.3281C14.4883 19.8516 14.791 20.5625 14.8535 21.4609L14.8652 21.8945C14.8652 22.8672 14.5938 23.6484 14.0508 24.2383C13.5078 24.8242 12.7793 25.1172 11.8652 25.1172C10.9512 25.1172 10.2207 24.8242 9.67383 24.2383C9.13086 23.6523 8.85938 22.8555 8.85938 21.8477V21.7715ZM10.5527 21.8945C10.5527 22.4961 10.666 22.957 10.8926 23.2773C11.1191 23.5938 11.4434 23.752 11.8652 23.752C12.2754 23.752 12.5957 23.5957 12.8262 23.2832C13.0566 22.9668 13.1719 22.4629 13.1719 21.7715C13.1719 21.1816 13.0566 20.7246 12.8262 20.4004C12.5957 20.0762 12.2715 19.9141 11.8535 19.9141C11.4395 19.9141 11.1191 20.0762 10.8926 20.4004C10.666 20.7207 10.5527 21.2188 10.5527 21.8945ZM17.4961 18.6602L17.5488 19.3691C17.998 18.8184 18.6055 18.543 19.3711 18.543C20.1875 18.543 20.748 18.8652 21.0527 19.5098C21.498 18.8652 22.1328 18.543 22.957 18.543C23.6445 18.543 24.1562 18.7441 24.4922 19.1465C24.8281 19.5449 24.9961 20.1465 24.9961 20.9512V25H23.2969V20.957C23.2969 20.5977 23.2266 20.3359 23.0859 20.1719C22.9453 20.0039 22.6973 19.9199 22.3418 19.9199C21.834 19.9199 21.4824 20.1621 21.2871 20.6465L21.293 25H19.5996V20.9629C19.5996 20.5957 19.5273 20.3301 19.3828 20.166C19.2383 20.002 18.9922 19.9199 18.6445 19.9199C18.1641 19.9199 17.8164 20.1191 17.6016 20.5176V25H15.9082V18.6602H17.4961Z" fill="white"/>
<rect x="62" y="19" width="65" height="3" fill="#FFA500"/>
</svg>
